<svg width="297" height="125" viewBox="0 0 297 125" fill="none" xmlns="http://www.w3.org/2000/svg">
<path d="M47.9834 112.982C47.7972 114.954 47.0693 116.495 45.7998 117.604C44.5303 118.704 42.8418 119.254 40.7344 119.254C39.2617 119.254 37.9626 118.907 36.8369 118.213C35.7197 117.51 34.8564 116.516 34.2471 115.229C33.6377 113.943 33.3203 112.449 33.2949 110.748V109.021C33.2949 107.278 33.6038 105.742 34.2217 104.413C34.8395 103.084 35.724 102.06 36.875 101.341C38.0345 100.621 39.3717 100.262 40.8867 100.262C42.9264 100.262 44.5684 100.816 45.8125 101.925C47.0566 103.034 47.7803 104.599 47.9834 106.622H44.7842C44.6318 105.293 44.2425 104.337 43.6162 103.753C42.9984 103.16 42.0885 102.864 40.8867 102.864C39.4902 102.864 38.4154 103.376 37.6621 104.4C36.9173 105.416 36.5365 106.91 36.5195 108.882V110.52C36.5195 112.517 36.875 114.04 37.5859 115.09C38.3053 116.139 39.3548 116.664 40.7344 116.664C41.9954 116.664 42.9434 116.381 43.5781 115.813C44.2129 115.246 44.6149 114.303 44.7842 112.982H47.9834ZM59.2944 119C59.159 118.738 59.0405 118.31 58.9389 117.718C57.9572 118.742 56.7554 119.254 55.3335 119.254C53.9539 119.254 52.8283 118.86 51.9565 118.073C51.0848 117.286 50.6489 116.313 50.6489 115.153C50.6489 113.689 51.1906 112.568 52.2739 111.789C53.3657 111.002 54.923 110.608 56.9458 110.608H58.8374V109.707C58.8374 108.996 58.6385 108.429 58.2407 108.006C57.8429 107.574 57.2378 107.358 56.4253 107.358C55.7228 107.358 55.1473 107.536 54.6987 107.892C54.2501 108.239 54.0259 108.683 54.0259 109.225H50.9409C50.9409 108.471 51.1906 107.769 51.6899 107.117C52.1893 106.457 52.8664 105.941 53.7212 105.568C54.5845 105.196 55.5451 105.01 56.603 105.01C58.2111 105.01 59.4933 105.416 60.4497 106.229C61.4061 107.033 61.897 108.167 61.9223 109.631V115.826C61.9223 117.062 62.0958 118.048 62.4429 118.784V119H59.2944ZM55.9048 116.778C56.5141 116.778 57.0854 116.63 57.6186 116.334C58.1603 116.038 58.5665 115.64 58.8374 115.141V112.551H57.1743C56.0317 112.551 55.1727 112.75 54.5971 113.147C54.0216 113.545 53.7339 114.108 53.7339 114.836C53.7339 115.428 53.9285 115.902 54.3179 116.258C54.7156 116.605 55.2446 116.778 55.9048 116.778ZM68.955 119H65.8701V99.5H68.955V119ZM78.4887 116.791C79.2589 116.791 79.8979 116.567 80.4057 116.118C80.9135 115.67 81.1844 115.115 81.2182 114.455H84.1254C84.0916 115.31 83.825 116.11 83.3256 116.854C82.8263 117.591 82.1492 118.175 81.2944 118.606C80.4396 119.038 79.517 119.254 78.5268 119.254C76.6056 119.254 75.0821 118.632 73.9565 117.388C72.8308 116.144 72.268 114.425 72.268 112.233V111.916C72.268 109.826 72.8266 108.154 73.9438 106.901C75.061 105.64 76.5844 105.01 78.5141 105.01C80.1476 105.01 81.4763 105.488 82.5004 106.444C83.533 107.392 84.0746 108.641 84.1254 110.189H81.2182C81.1844 109.402 80.9135 108.755 80.4057 108.247C79.9064 107.739 79.2674 107.485 78.4887 107.485C77.49 107.485 76.7198 107.849 76.1782 108.577C75.6365 109.297 75.3614 110.393 75.353 111.865V112.36C75.353 113.85 75.6196 114.963 76.1528 115.699C76.6944 116.427 77.4731 116.791 78.4887 116.791ZM95.2968 117.654C94.3912 118.721 93.1047 119.254 91.4374 119.254C89.9478 119.254 88.818 118.818 88.0478 117.946C87.2861 117.075 86.9052 115.813 86.9052 114.163V105.264H89.9902V114.125C89.9902 115.868 90.7138 116.74 92.1611 116.74C93.6591 116.74 94.6705 116.203 95.1952 115.128V105.264H98.2802V119H95.373L95.2968 117.654ZM105.224 119H102.139V99.5H105.224V119ZM117.322 119C117.187 118.738 117.068 118.31 116.967 117.718C115.985 118.742 114.783 119.254 113.361 119.254C111.982 119.254 110.856 118.86 109.984 118.073C109.113 117.286 108.677 116.313 108.677 115.153C108.677 113.689 109.218 112.568 110.302 111.789C111.393 111.002 112.951 110.608 114.974 110.608H116.865V109.707C116.865 108.996 116.666 108.429 116.268 108.006C115.871 107.574 115.266 107.358 114.453 107.358C113.751 107.358 113.175 107.536 112.726 107.892C112.278 108.239 112.054 108.683 112.054 109.225H108.969C108.969 108.471 109.218 107.769 109.718 107.117C110.217 106.457 110.894 105.941 111.749 105.568C112.612 105.196 113.573 105.01 114.631 105.01C116.239 105.01 117.521 105.416 118.477 106.229C119.434 107.033 119.925 108.167 119.95 109.631V115.826C119.95 117.062 120.124 118.048 120.471 118.784V119H117.322ZM113.933 116.778C114.542 116.778 115.113 116.63 115.646 116.334C116.188 116.038 116.594 115.64 116.865 115.141V112.551H115.202C114.059 112.551 113.2 112.75 112.625 113.147C112.049 113.545 111.762 114.108 111.762 114.836C111.762 115.428 111.956 115.902 112.346 116.258C112.743 116.605 113.272 116.778 113.933 116.778ZM127.567 101.925V105.264H129.992V107.549H127.567V115.217C127.567 115.742 127.668 116.122 127.871 116.359C128.083 116.588 128.455 116.702 128.989 116.702C129.344 116.702 129.704 116.66 130.068 116.575V118.962C129.365 119.157 128.688 119.254 128.036 119.254C125.667 119.254 124.482 117.946 124.482 115.331V107.549H122.222V105.264H124.482V101.925H127.567ZM138.929 119.254C136.973 119.254 135.387 118.64 134.168 117.413C132.958 116.177 132.352 114.535 132.352 112.487V112.106C132.352 110.735 132.615 109.512 133.139 108.438C133.673 107.354 134.417 106.512 135.374 105.911C136.33 105.31 137.397 105.01 138.573 105.01C140.444 105.01 141.887 105.606 142.902 106.8C143.926 107.993 144.438 109.682 144.438 111.865V113.109H135.463C135.556 114.243 135.932 115.141 136.593 115.801C137.261 116.461 138.099 116.791 139.106 116.791C140.52 116.791 141.671 116.22 142.559 115.077L144.223 116.664C143.672 117.485 142.936 118.124 142.014 118.581C141.099 119.03 140.071 119.254 138.929 119.254ZM138.56 107.485C137.714 107.485 137.028 107.782 136.504 108.374C135.987 108.966 135.657 109.792 135.514 110.85H141.391V110.621C141.324 109.589 141.049 108.81 140.566 108.285C140.084 107.752 139.415 107.485 138.56 107.485ZM160.687 109.275L164.94 100.516H168.495L162.3 112.195V119H159.075V112.195L152.867 100.516H156.434L160.687 109.275ZM169.307 112.005C169.307 110.659 169.574 109.449 170.107 108.374C170.64 107.291 171.389 106.461 172.354 105.886C173.319 105.302 174.427 105.01 175.68 105.01C177.533 105.01 179.036 105.606 180.187 106.8C181.346 107.993 181.973 109.576 182.066 111.548L182.078 112.271C182.078 113.626 181.816 114.836 181.291 115.902C180.775 116.969 180.03 117.794 179.057 118.378C178.092 118.962 176.975 119.254 175.705 119.254C173.767 119.254 172.214 118.611 171.046 117.324C169.887 116.029 169.307 114.307 169.307 112.157V112.005ZM172.392 112.271C172.392 113.685 172.684 114.794 173.268 115.598C173.852 116.393 174.664 116.791 175.705 116.791C176.746 116.791 177.555 116.385 178.13 115.572C178.714 114.76 179.006 113.571 179.006 112.005C179.006 110.617 178.706 109.517 178.105 108.704C177.512 107.892 176.704 107.485 175.68 107.485C174.673 107.485 173.873 107.887 173.281 108.691C172.688 109.487 172.392 110.68 172.392 112.271ZM193.529 117.654C192.623 118.721 191.337 119.254 189.67 119.254C188.18 119.254 187.05 118.818 186.28 117.946C185.518 117.075 185.137 115.813 185.137 114.163V105.264H188.222V114.125C188.222 115.868 188.946 116.74 190.393 116.74C191.891 116.74 192.903 116.203 193.428 115.128V105.264H196.512V119H193.605L193.529 117.654ZM207.366 108.082C206.96 108.014 206.541 107.98 206.11 107.98C204.696 107.98 203.744 108.522 203.253 109.605V119H200.168V105.264H203.114L203.19 106.8C203.934 105.606 204.967 105.01 206.287 105.01C206.727 105.01 207.091 105.069 207.379 105.188L207.366 108.082ZM223.92 111.878H220.34V119H217.128V100.516H223.628C225.761 100.516 227.407 100.994 228.567 101.95C229.726 102.907 230.306 104.29 230.306 106.102C230.306 107.337 230.005 108.374 229.404 109.212C228.812 110.041 227.983 110.68 226.916 111.129L231.068 118.835V119H227.627L223.92 111.878ZM220.34 109.301H223.641C224.724 109.301 225.571 109.03 226.18 108.488C226.789 107.938 227.094 107.189 227.094 106.241C227.094 105.251 226.81 104.485 226.243 103.943C225.685 103.402 224.847 103.122 223.73 103.105H220.34V109.301ZM248.625 110.24C248.625 112.051 248.312 113.643 247.685 115.014C247.059 116.376 246.162 117.426 244.994 118.162C243.834 118.89 242.497 119.254 240.982 119.254C239.484 119.254 238.147 118.89 236.97 118.162C235.802 117.426 234.897 116.381 234.254 115.026C233.619 113.672 233.297 112.111 233.289 110.342V109.301C233.289 107.498 233.606 105.907 234.241 104.527C234.884 103.148 235.786 102.094 236.945 101.366C238.113 100.63 239.45 100.262 240.957 100.262C242.463 100.262 243.796 100.626 244.956 101.354C246.124 102.073 247.025 103.114 247.66 104.477C248.295 105.831 248.616 107.409 248.625 109.212V110.24ZM245.413 109.275C245.413 107.227 245.023 105.657 244.245 104.565C243.475 103.474 242.379 102.928 240.957 102.928C239.569 102.928 238.481 103.474 237.694 104.565C236.915 105.649 236.518 107.185 236.501 109.174V110.24C236.501 112.271 236.894 113.841 237.681 114.95C238.477 116.059 239.577 116.613 240.982 116.613C242.404 116.613 243.496 116.072 244.258 114.988C245.028 113.905 245.413 112.322 245.413 110.24V109.275ZM255.734 119H252.534V100.516H255.734V119Z" fill="#656565"/>
<path d="M15.791 36.8755V58.4565H26.5815C28.0604 58.4565 29.4515 58.1808 30.7549 57.6294C32.0583 57.0529 33.1987 56.2759 34.1763 55.2983C35.1538 54.3208 35.9183 53.1803 36.4697 51.877C37.0462 50.5485 37.3345 49.1449 37.3345 47.666C37.3345 46.1872 37.0462 44.7961 36.4697 43.4927C35.9183 42.1642 35.1538 41.0112 34.1763 40.0337C33.1987 39.0562 32.0583 38.2917 30.7549 37.7402C29.4515 37.1637 28.0604 36.8755 26.5815 36.8755H15.791ZM15.791 80H5.00049V26.085H26.5815C28.5617 26.085 30.4666 26.3481 32.2964 26.8745C34.1261 27.3758 35.8306 28.1027 37.4097 29.0552C39.0138 29.9826 40.4676 31.1105 41.771 32.439C43.0994 33.7424 44.2274 35.1961 45.1548 36.8003C46.1073 38.4045 46.8341 40.1214 47.3354 41.9512C47.8618 43.7809 48.125 45.6859 48.125 47.666C48.125 49.5208 47.8869 51.3255 47.4106 53.0801C46.9595 54.8346 46.2952 56.5015 45.418 58.0806C44.5658 59.6597 43.513 61.1134 42.2598 62.4419C41.0065 63.7703 39.6029 64.9233 38.0488 65.9009L44.0269 80H32.5596L27.8599 69.1343L15.791 69.2095V80ZM68.1661 70.1494C68.5671 70.2747 68.9681 70.3625 69.3692 70.4126C69.7702 70.4377 70.1713 70.4502 70.5723 70.4502C71.5749 70.4502 72.5399 70.3123 73.4673 70.0366C74.3947 69.7609 75.2595 69.3724 76.0616 68.8711C76.8887 68.3447 77.6156 67.7181 78.2422 66.9912C78.8939 66.2393 79.4203 65.4121 79.8213 64.5098L87.3409 72.0669C86.3884 73.4204 85.2855 74.6361 84.0323 75.7139C82.8041 76.7917 81.4631 77.7065 80.0093 78.4585C78.5806 79.2104 77.0642 79.7744 75.46 80.1504C73.8809 80.5514 72.2517 80.752 70.5723 80.752C67.7399 80.752 65.0705 80.2256 62.564 79.1729C60.0826 78.1201 57.9019 76.6538 56.022 74.7739C54.1672 72.894 52.7009 70.6632 51.6231 68.0815C50.5453 65.4748 50.0064 62.6174 50.0064 59.5093C50.0064 56.326 50.5453 53.4185 51.6231 50.7866C52.7009 48.1548 54.1672 45.9115 56.022 44.0566C57.9019 42.2018 60.0826 40.7606 62.564 39.7329C65.0705 38.7052 67.7399 38.1914 70.5723 38.1914C72.2517 38.1914 73.8934 38.3919 75.4976 38.793C77.1018 39.194 78.6182 39.7705 80.0469 40.5225C81.5007 41.2744 82.8542 42.2018 84.1075 43.3047C85.3607 44.3825 86.4636 45.5981 87.4161 46.9517L68.1661 70.1494ZM73.4297 48.9819C72.9535 48.8065 72.4773 48.6937 72.001 48.6436C71.5498 48.5934 71.0736 48.5684 70.5723 48.5684C69.1687 48.5684 67.8402 48.8315 66.587 49.3579C65.3588 49.8592 64.281 50.5861 63.3536 51.5386C62.4512 52.491 61.7369 53.644 61.2105 54.9976C60.6841 56.326 60.4209 57.8299 60.4209 59.5093C60.4209 59.8853 60.4335 60.3114 60.4585 60.7876C60.5087 61.2638 60.5713 61.7526 60.6465 62.2539C60.7468 62.7301 60.8596 63.1938 60.9849 63.645C61.1102 64.0962 61.2732 64.4972 61.4737 64.8481L73.4297 48.9819ZM129.753 80H127.271L123.286 74.4731C122.308 75.3504 121.268 76.1776 120.165 76.9546C119.087 77.7065 117.947 78.3708 116.744 78.9473C115.541 79.4987 114.3 79.9373 113.022 80.2632C111.768 80.589 110.49 80.752 109.187 80.752C106.354 80.752 103.685 80.2757 101.178 79.3232C98.6969 78.3708 96.5162 76.9922 94.6363 75.1875C92.7815 73.3577 91.3152 71.127 90.2374 68.4951C89.1596 65.8633 88.6207 62.868 88.6207 59.5093C88.6207 56.3761 89.1596 53.5062 90.2374 50.8994C91.3152 48.2676 92.7815 46.0117 94.6363 44.1318C96.5162 42.252 98.6969 40.7982 101.178 39.7705C103.685 38.7178 106.354 38.1914 109.187 38.1914C110.49 38.1914 111.781 38.3543 113.059 38.6802C114.337 39.006 115.578 39.4572 116.781 40.0337C117.984 40.6102 119.125 41.2869 120.203 42.064C121.306 42.841 122.333 43.6807 123.286 44.583L127.271 39.8081H129.753V80ZM119.413 59.5093C119.413 58.1056 119.137 56.7521 118.586 55.4487C118.06 54.1203 117.333 52.9548 116.405 51.9521C115.478 50.9245 114.388 50.1099 113.134 49.5083C111.906 48.8817 110.59 48.5684 109.187 48.5684C107.783 48.5684 106.455 48.8065 105.201 49.2827C103.973 49.759 102.895 50.4608 101.968 51.3882C101.066 52.3156 100.351 53.4686 99.8248 54.8472C99.2984 56.2007 99.0352 57.7547 99.0352 59.5093C99.0352 61.2638 99.2984 62.8304 99.8248 64.209C100.351 65.5625 101.066 66.703 101.968 67.6304C102.895 68.5578 103.973 69.2596 105.201 69.7358C106.455 70.2121 107.783 70.4502 109.187 70.4502C110.59 70.4502 111.906 70.1494 113.134 69.5479C114.388 68.9212 115.478 68.1066 116.405 67.104C117.333 66.0763 118.06 64.9108 118.586 63.6074C119.137 62.279 119.413 60.9129 119.413 59.5093ZM146.41 80H136.07V23.7163H146.41V80ZM162.428 95.3398V85.0005L168.143 85.0757C169.145 85.0757 170.11 84.9128 171.038 84.5869C171.965 84.2611 172.817 83.8099 173.594 83.2334C174.396 82.6569 175.098 81.9676 175.7 81.1655C176.301 80.3885 176.79 79.5363 177.166 78.6089C176.038 79.0851 174.885 79.5614 173.707 80.0376C172.554 80.5138 171.389 80.752 170.211 80.752C167.729 80.752 165.398 80.3133 163.217 79.436C161.037 78.5588 159.119 77.318 157.465 75.7139C155.836 74.0846 154.545 72.117 153.592 69.811C152.665 67.48 152.201 64.8732 152.201 61.9907V39.7329H162.428V61.9907C162.428 63.4194 162.628 64.6727 163.029 65.7505C163.456 66.8032 164.02 67.693 164.721 68.4199C165.423 69.1217 166.238 69.6481 167.165 69.999C168.118 70.3499 169.133 70.5254 170.211 70.5254C171.263 70.5254 172.253 70.2873 173.181 69.811C174.133 69.3097 174.96 68.658 175.662 67.856C176.364 67.0539 176.916 66.1515 177.317 65.1489C177.718 64.1213 177.918 63.0685 177.918 61.9907V39.7329H188.257V74.9243C188.232 77.7567 187.681 80.4136 186.603 82.895C185.525 85.3765 184.047 87.5446 182.167 89.3994C180.312 91.2542 178.144 92.7205 175.662 93.7983C173.181 94.8761 170.524 95.415 167.692 95.415L162.428 95.3398ZM226.007 80H192.432L209.389 50.0347H192.432V39.8081H226.007L209.05 69.7734H226.007V80ZM245.597 70.1494C245.998 70.2747 246.399 70.3625 246.8 70.4126C247.201 70.4377 247.602 70.4502 248.003 70.4502C249.006 70.4502 249.971 70.3123 250.898 70.0366C251.826 69.7609 252.69 69.3724 253.492 68.8711C254.32 68.3447 255.046 67.7181 255.673 66.9912C256.325 66.2393 256.851 65.4121 257.252 64.5098L264.772 72.0669C263.819 73.4204 262.716 74.6361 261.463 75.7139C260.235 76.7917 258.894 77.7065 257.44 78.4585C256.011 79.2104 254.495 79.7744 252.891 80.1504C251.312 80.5514 249.683 80.752 248.003 80.752C245.171 80.752 242.501 80.2256 239.995 79.1729C237.513 78.1201 235.333 76.6538 233.453 74.7739C231.598 72.894 230.132 70.6632 229.054 68.0815C227.976 65.4748 227.437 62.6174 227.437 59.5093C227.437 56.326 227.976 53.4185 229.054 50.7866C230.132 48.1548 231.598 45.9115 233.453 44.0566C235.333 42.2018 237.513 40.7606 239.995 39.7329C242.501 38.7052 245.171 38.1914 248.003 38.1914C249.683 38.1914 251.324 38.3919 252.928 38.793C254.533 39.194 256.049 39.7705 257.478 40.5225C258.932 41.2744 260.285 42.2018 261.538 43.3047C262.792 44.3825 263.894 45.5981 264.847 46.9517L245.597 70.1494ZM250.861 48.9819C250.384 48.8065 249.908 48.6937 249.432 48.6436C248.981 48.5934 248.504 48.5684 248.003 48.5684C246.6 48.5684 245.271 48.8315 244.018 49.3579C242.79 49.8592 241.712 50.5861 240.784 51.5386C239.882 52.491 239.168 53.644 238.641 54.9976C238.115 56.326 237.852 57.8299 237.852 59.5093C237.852 59.8853 237.864 60.3114 237.889 60.7876C237.94 61.2638 238.002 61.7526 238.077 62.2539C238.178 62.7301 238.29 63.1938 238.416 63.645C238.541 64.0962 238.704 64.4972 238.905 64.8481L250.861 48.9819ZM278.76 80H268.495V39.7329H270.977L274.361 44.5078C276.015 43.0039 277.895 41.8509 280 41.0488C282.106 40.2217 284.286 39.8081 286.542 39.8081H295.603V50.0347H286.542C285.464 50.0347 284.449 50.2352 283.497 50.6362C282.544 51.0373 281.717 51.5887 281.015 52.2905C280.314 52.9924 279.762 53.8195 279.361 54.772C278.96 55.7244 278.76 56.7396 278.76 57.8174V80Z" fill="url(#paint0_linear)"/>
<path d="M89.5 0L127.172 27.75H51.8279L89.5 0Z" fill="#8E88EA"/>
<rect x="59" y="25" width="61" height="8" fill="#8E88EA"/>
<defs>
<linearGradient id="paint0_linear" x1="148.5" y1="4" x2="148.5" y2="100" gradientUnits="userSpaceOnUse">
<stop stop-color="#5C5AE2" stop-opacity="0.63"/>
<stop offset="1" stop-color="#755AE2"/>
</linearGradient>
</defs>
</svg>
