<svg width="297" height="100" viewBox="0 0 297 100" fill="none" xmlns="http://www.w3.org/2000/svg">
<path d="M15.791 36.8755V58.4565H26.5815C28.0604 58.4565 29.4515 58.1808 30.7549 57.6294C32.0583 57.0529 33.1987 56.2759 34.1763 55.2983C35.1538 54.3208 35.9183 53.1803 36.4697 51.877C37.0462 50.5485 37.3345 49.1449 37.3345 47.666C37.3345 46.1872 37.0462 44.7961 36.4697 43.4927C35.9183 42.1642 35.1538 41.0112 34.1763 40.0337C33.1987 39.0562 32.0583 38.2917 30.7549 37.7402C29.4515 37.1637 28.0604 36.8755 26.5815 36.8755H15.791ZM15.791 80H5.00049V26.085H26.5815C28.5617 26.085 30.4666 26.3481 32.2964 26.8745C34.1261 27.3758 35.8306 28.1027 37.4097 29.0552C39.0138 29.9826 40.4676 31.1105 41.771 32.439C43.0994 33.7424 44.2274 35.1961 45.1548 36.8003C46.1073 38.4045 46.8341 40.1214 47.3354 41.9512C47.8618 43.7809 48.125 45.6859 48.125 47.666C48.125 49.5208 47.8869 51.3255 47.4106 53.0801C46.9595 54.8346 46.2952 56.5015 45.418 58.0806C44.5658 59.6597 43.513 61.1134 42.2598 62.4419C41.0065 63.7703 39.6029 64.9233 38.0488 65.9009L44.0269 80H32.5596L27.8599 69.1343L15.791 69.2095V80ZM68.1661 70.1494C68.5671 70.2747 68.9681 70.3625 69.3692 70.4126C69.7702 70.4377 70.1713 70.4502 70.5723 70.4502C71.5749 70.4502 72.5399 70.3123 73.4673 70.0366C74.3947 69.7609 75.2595 69.3724 76.0616 68.8711C76.8887 68.3447 77.6156 67.7181 78.2422 66.9912C78.8939 66.2393 79.4203 65.4121 79.8213 64.5098L87.3409 72.0669C86.3884 73.4204 85.2855 74.6361 84.0323 75.7139C82.8041 76.7917 81.4631 77.7065 80.0093 78.4585C78.5806 79.2104 77.0642 79.7744 75.46 80.1504C73.8809 80.5514 72.2517 80.752 70.5723 80.752C67.7399 80.752 65.0705 80.2256 62.564 79.1729C60.0826 78.1201 57.9019 76.6538 56.022 74.7739C54.1672 72.894 52.7009 70.6632 51.6231 68.0815C50.5453 65.4748 50.0064 62.6174 50.0064 59.5093C50.0064 56.326 50.5453 53.4185 51.6231 50.7866C52.7009 48.1548 54.1672 45.9115 56.022 44.0566C57.9019 42.2018 60.0826 40.7606 62.564 39.7329C65.0705 38.7052 67.7399 38.1914 70.5723 38.1914C72.2517 38.1914 73.8934 38.3919 75.4976 38.793C77.1018 39.194 78.6182 39.7705 80.0469 40.5225C81.5007 41.2744 82.8542 42.2018 84.1075 43.3047C85.3607 44.3825 86.4636 45.5981 87.4161 46.9517L68.1661 70.1494ZM73.4297 48.9819C72.9535 48.8065 72.4773 48.6937 72.001 48.6436C71.5498 48.5934 71.0736 48.5684 70.5723 48.5684C69.1687 48.5684 67.8402 48.8315 66.587 49.3579C65.3588 49.8592 64.281 50.5861 63.3536 51.5386C62.4512 52.491 61.7369 53.644 61.2105 54.9976C60.6841 56.326 60.4209 57.8299 60.4209 59.5093C60.4209 59.8853 60.4335 60.3114 60.4585 60.7876C60.5087 61.2638 60.5713 61.7526 60.6465 62.2539C60.7468 62.7301 60.8596 63.1938 60.9849 63.645C61.1102 64.0962 61.2732 64.4972 61.4737 64.8481L73.4297 48.9819ZM129.753 80H127.271L123.286 74.4731C122.308 75.3504 121.268 76.1776 120.165 76.9546C119.087 77.7065 117.947 78.3708 116.744 78.9473C115.541 79.4987 114.3 79.9373 113.022 80.2632C111.768 80.589 110.49 80.752 109.187 80.752C106.354 80.752 103.685 80.2757 101.178 79.3232C98.6969 78.3708 96.5162 76.9922 94.6363 75.1875C92.7815 73.3577 91.3152 71.127 90.2374 68.4951C89.1596 65.8633 88.6207 62.868 88.6207 59.5093C88.6207 56.3761 89.1596 53.5062 90.2374 50.8994C91.3152 48.2676 92.7815 46.0117 94.6363 44.1318C96.5162 42.252 98.6969 40.7982 101.178 39.7705C103.685 38.7178 106.354 38.1914 109.187 38.1914C110.49 38.1914 111.781 38.3543 113.059 38.6802C114.337 39.006 115.578 39.4572 116.781 40.0337C117.984 40.6102 119.125 41.2869 120.203 42.064C121.306 42.841 122.333 43.6807 123.286 44.583L127.271 39.8081H129.753V80ZM119.413 59.5093C119.413 58.1056 119.137 56.7521 118.586 55.4487C118.06 54.1203 117.333 52.9548 116.405 51.9521C115.478 50.9245 114.388 50.1099 113.134 49.5083C111.906 48.8817 110.59 48.5684 109.187 48.5684C107.783 48.5684 106.455 48.8065 105.201 49.2827C103.973 49.759 102.895 50.4608 101.968 51.3882C101.066 52.3156 100.351 53.4686 99.8248 54.8472C99.2984 56.2007 99.0352 57.7547 99.0352 59.5093C99.0352 61.2638 99.2984 62.8304 99.8248 64.209C100.351 65.5625 101.066 66.703 101.968 67.6304C102.895 68.5578 103.973 69.2596 105.201 69.7358C106.455 70.2121 107.783 70.4502 109.187 70.4502C110.59 70.4502 111.906 70.1494 113.134 69.5479C114.388 68.9212 115.478 68.1066 116.405 67.104C117.333 66.0763 118.06 64.9108 118.586 63.6074C119.137 62.279 119.413 60.9129 119.413 59.5093ZM146.41 80H136.07V23.7163H146.41V80ZM162.428 95.3398V85.0005L168.143 85.0757C169.145 85.0757 170.11 84.9128 171.038 84.5869C171.965 84.2611 172.817 83.8099 173.594 83.2334C174.396 82.6569 175.098 81.9676 175.7 81.1655C176.301 80.3885 176.79 79.5363 177.166 78.6089C176.038 79.0851 174.885 79.5614 173.707 80.0376C172.554 80.5138 171.389 80.752 170.211 80.752C167.729 80.752 165.398 80.3133 163.217 79.436C161.037 78.5588 159.119 77.318 157.465 75.7139C155.836 74.0846 154.545 72.117 153.592 69.811C152.665 67.48 152.201 64.8732 152.201 61.9907V39.7329H162.428V61.9907C162.428 63.4194 162.628 64.6727 163.029 65.7505C163.456 66.8032 164.02 67.693 164.721 68.4199C165.423 69.1217 166.238 69.6481 167.165 69.999C168.118 70.3499 169.133 70.5254 170.211 70.5254C171.263 70.5254 172.253 70.2873 173.181 69.811C174.133 69.3097 174.96 68.658 175.662 67.856C176.364 67.0539 176.916 66.1515 177.317 65.1489C177.718 64.1213 177.918 63.0685 177.918 61.9907V39.7329H188.257V74.9243C188.232 77.7567 187.681 80.4136 186.603 82.895C185.525 85.3765 184.047 87.5446 182.167 89.3994C180.312 91.2542 178.144 92.7205 175.662 93.7983C173.181 94.8761 170.524 95.415 167.692 95.415L162.428 95.3398ZM226.007 80H192.432L209.389 50.0347H192.432V39.8081H226.007L209.05 69.7734H226.007V80ZM245.597 70.1494C245.998 70.2747 246.399 70.3625 246.8 70.4126C247.201 70.4377 247.602 70.4502 248.003 70.4502C249.006 70.4502 249.971 70.3123 250.898 70.0366C251.826 69.7609 252.69 69.3724 253.492 68.8711C254.32 68.3447 255.046 67.7181 255.673 66.9912C256.325 66.2393 256.851 65.4121 257.252 64.5098L264.772 72.0669C263.819 73.4204 262.716 74.6361 261.463 75.7139C260.235 76.7917 258.894 77.7065 257.44 78.4585C256.011 79.2104 254.495 79.7744 252.891 80.1504C251.312 80.5514 249.683 80.752 248.003 80.752C245.171 80.752 242.501 80.2256 239.995 79.1729C237.513 78.1201 235.333 76.6538 233.453 74.7739C231.598 72.894 230.132 70.6632 229.054 68.0815C227.976 65.4748 227.437 62.6174 227.437 59.5093C227.437 56.326 227.976 53.4185 229.054 50.7866C230.132 48.1548 231.598 45.9115 233.453 44.0566C235.333 42.2018 237.513 40.7606 239.995 39.7329C242.501 38.7052 245.171 38.1914 248.003 38.1914C249.683 38.1914 251.324 38.3919 252.928 38.793C254.533 39.194 256.049 39.7705 257.478 40.5225C258.932 41.2744 260.285 42.2018 261.538 43.3047C262.792 44.3825 263.894 45.5981 264.847 46.9517L245.597 70.1494ZM250.861 48.9819C250.384 48.8065 249.908 48.6937 249.432 48.6436C248.981 48.5934 248.504 48.5684 248.003 48.5684C246.6 48.5684 245.271 48.8315 244.018 49.3579C242.79 49.8592 241.712 50.5861 240.784 51.5386C239.882 52.491 239.168 53.644 238.641 54.9976C238.115 56.326 237.852 57.8299 237.852 59.5093C237.852 59.8853 237.864 60.3114 237.889 60.7876C237.94 61.2638 238.002 61.7526 238.077 62.2539C238.178 62.7301 238.29 63.1938 238.416 63.645C238.541 64.0962 238.704 64.4972 238.905 64.8481L250.861 48.9819ZM278.76 80H268.495V39.7329H270.977L274.361 44.5078C276.015 43.0039 277.895 41.8509 280 41.0488C282.106 40.2217 284.286 39.8081 286.542 39.8081H295.603V50.0347H286.542C285.464 50.0347 284.449 50.2352 283.497 50.6362C282.544 51.0373 281.717 51.5887 281.015 52.2905C280.314 52.9924 279.762 53.8195 279.361 54.772C278.96 55.7244 278.76 56.7396 278.76 57.8174V80Z" fill="url(#paint0_linear)"/>
<path d="M89.5 0L127.172 27.75H51.8279L89.5 0Z" fill="#8E88EA"/>
<rect x="59" y="25" width="61" height="8" fill="#8E88EA"/>
<defs>
<linearGradient id="paint0_linear" x1="148.5" y1="4" x2="148.5" y2="100" gradientUnits="userSpaceOnUse">
<stop stop-color="#5C5AE2" stop-opacity="0.63"/>
<stop offset="1" stop-color="#755AE2"/>
</linearGradient>
</defs>
</svg>
