<svg width="225" height="95" viewBox="0 0 225 95" fill="none" xmlns="http://www.w3.org/2000/svg">
<path d="M36.63 85.2282C36.5851 86.2028 36.3222 87.0652 35.8413 87.8154C35.3604 88.5591 34.684 89.1362 33.812 89.5465C32.9464 89.9569 31.9558 90.1621 30.8401 90.1621C29 90.1621 27.5509 89.5626 26.493 88.3636C25.435 87.1646 24.9061 85.4719 24.9061 83.2855V82.593C24.9061 81.2209 25.1433 80.0219 25.6178 78.996C26.0986 77.9637 26.7879 77.1686 27.6856 76.6108C28.5832 76.0466 29.6219 75.7644 30.8017 75.7644C32.5008 75.7644 33.8665 76.2133 34.8988 77.1109C35.9311 78.0022 36.5178 79.2332 36.6588 80.8041H33.2927C33.267 79.9513 33.0522 79.339 32.6483 78.9671C32.2443 78.5952 31.6288 78.4093 30.8017 78.4093C29.9617 78.4093 29.3462 78.7235 28.9551 79.3518C28.564 79.9802 28.3588 80.9836 28.3396 82.3622V83.3528C28.3396 84.8467 28.5255 85.9143 28.8974 86.5555C29.2757 87.1966 29.9233 87.5172 30.8401 87.5172C31.616 87.5172 32.2091 87.3345 32.6194 86.969C33.0298 86.6035 33.2478 86.0233 33.2734 85.2282H36.63ZM44.3333 89.9697C44.2179 89.7581 44.1153 89.4472 44.0256 89.0368C43.4293 89.787 42.5958 90.1621 41.525 90.1621C40.544 90.1621 39.7105 89.8671 39.0244 89.2773C38.3383 88.681 37.9953 87.934 37.9953 87.0363C37.9953 85.9079 38.4121 85.0551 39.2456 84.478C40.0791 83.901 41.291 83.6125 42.8811 83.6125H43.8813V83.0642C43.8813 82.1089 43.4678 81.6312 42.6406 81.6312C41.8712 81.6312 41.4865 82.0095 41.4865 82.7661H38.2454C38.2454 81.7594 38.6717 80.9419 39.5245 80.3136C40.3837 79.6852 41.4769 79.3711 42.8041 79.3711C44.1314 79.3711 45.1797 79.6949 45.9491 80.3424C46.7185 80.99 47.1128 81.8781 47.1321 83.0065V87.6134C47.1449 88.5688 47.2924 89.2997 47.5745 89.8062V89.9697H44.3333ZM42.304 87.8538C42.708 87.8538 43.0414 87.7673 43.3043 87.5942C43.5735 87.421 43.7659 87.2255 43.8813 87.0075V85.3436H42.9388C41.8103 85.3436 41.2461 85.8502 41.2461 86.8632C41.2461 87.1582 41.3455 87.3986 41.5442 87.5845C41.743 87.7641 41.9962 87.8538 42.304 87.8538ZM52.7484 89.9697H49.4976V75.197H52.7484V89.9697ZM59.5477 87.6615C60.0029 87.6615 60.3556 87.5397 60.6057 87.296C60.8557 87.046 60.9775 86.6997 60.9711 86.2573H64.0103C64.0103 87.3986 63.6 88.3347 62.7792 89.0657C61.9649 89.7966 60.9134 90.1621 59.6247 90.1621C58.1115 90.1621 56.9189 89.6876 56.0469 88.7387C55.1749 87.7897 54.7389 86.4753 54.7389 84.7954V84.6608C54.7389 83.6092 54.9312 82.6827 55.3159 81.8813C55.7071 81.0734 56.2681 80.4547 56.999 80.0251C57.73 79.5891 58.5956 79.3711 59.5958 79.3711C60.9487 79.3711 62.0227 79.7462 62.8177 80.4963C63.6128 81.2465 64.0103 82.2628 64.0103 83.5451H60.9711C60.9711 83.0065 60.8397 82.593 60.5768 82.3045C60.3139 82.0159 59.9613 81.8717 59.5189 81.8717C58.6789 81.8717 58.1884 82.407 58.0474 83.4778C58.0025 83.8176 57.98 84.2857 57.98 84.882C57.98 85.9271 58.1051 86.6516 58.3551 87.0556C58.6052 87.4595 59.0027 87.6615 59.5477 87.6615ZM71.9733 88.8445C71.2873 89.7229 70.3608 90.1621 69.1938 90.1621C68.0525 90.1621 67.187 89.8319 66.5971 89.1715C66.0136 88.5046 65.7219 87.5493 65.7219 86.3054V79.5634H68.963V86.3246C68.963 87.2159 69.3958 87.6615 70.2614 87.6615C71.0052 87.6615 71.5341 87.3954 71.8483 86.8632V79.5634H75.1087V89.9697H72.0695L71.9733 88.8445ZM80.7058 89.9697H77.455V75.197H80.7058V89.9697ZM88.967 89.9697C88.8516 89.7581 88.749 89.4472 88.6592 89.0368C88.0629 89.787 87.2294 90.1621 86.1586 90.1621C85.1776 90.1621 84.3441 89.8671 83.658 89.2773C82.972 88.681 82.6289 87.934 82.6289 87.0363C82.6289 85.9079 83.0457 85.0551 83.8792 84.478C84.7128 83.901 85.9246 83.6125 87.5147 83.6125H88.515V83.0642C88.515 82.1089 88.1014 81.6312 87.2743 81.6312C86.5049 81.6312 86.1202 82.0095 86.1202 82.7661H82.879C82.879 81.7594 83.3054 80.9419 84.1582 80.3136C85.0173 79.6852 86.1105 79.3711 87.4378 79.3711C88.765 79.3711 89.8133 79.6949 90.5827 80.3424C91.3522 80.99 91.7465 81.8781 91.7657 83.0065V87.6134C91.7785 88.5688 91.926 89.2997 92.2081 89.8062V89.9697H88.967ZM86.9377 87.8538C87.3416 87.8538 87.675 87.7673 87.9379 87.5942C88.2072 87.421 88.3995 87.2255 88.515 87.0075V85.3436H87.5724C86.4439 85.3436 85.8797 85.8502 85.8797 86.8632C85.8797 87.1582 85.9791 87.3986 86.1779 87.5845C86.3766 87.7641 86.6299 87.8538 86.9377 87.8538ZM97.7379 76.9763V79.5634H99.4498V81.8139H97.7379V86.5747C97.7379 86.9658 97.8084 87.2383 97.9495 87.3922C98.0905 87.5461 98.3695 87.623 98.7862 87.623C99.1068 87.623 99.3761 87.6038 99.5941 87.5653V89.8832C99.0106 90.0691 98.4015 90.1621 97.7668 90.1621C96.6511 90.1621 95.8272 89.8992 95.295 89.3734C94.7628 88.8477 94.4967 88.0494 94.4967 86.9786V81.8139H93.1695V79.5634H94.4967V76.9763H97.7379ZM106.163 90.1621C104.566 90.1621 103.274 89.6876 102.287 88.7387C101.299 87.7833 100.806 86.5426 100.806 85.0166V84.7473C100.806 83.683 101.001 82.7437 101.392 81.9294C101.79 81.1151 102.367 80.4867 103.123 80.0443C103.88 79.5955 104.778 79.3711 105.816 79.3711C107.278 79.3711 108.432 79.8263 109.279 80.7368C110.125 81.6408 110.548 82.904 110.548 84.5261V85.786H104.104C104.22 86.3695 104.473 86.828 104.864 87.1614C105.255 87.4948 105.762 87.6615 106.384 87.6615C107.41 87.6615 108.211 87.3024 108.788 86.5843L110.269 88.3347C109.865 88.8925 109.292 89.3382 108.548 89.6716C107.81 89.9986 107.015 90.1621 106.163 90.1621ZM105.797 81.8717C104.848 81.8717 104.284 82.5 104.104 83.7567H107.374V83.5067C107.387 82.9873 107.256 82.5866 106.98 82.3045C106.704 82.0159 106.31 81.8717 105.797 81.8717ZM122.829 82.0448L125.407 75.9664H129.052L124.541 84.9397V89.9697H121.117V84.9397L116.616 75.9664H120.242L122.829 82.0448ZM129.273 84.6704C129.273 83.6317 129.475 82.7084 129.879 81.9005C130.283 81.0862 130.863 80.4611 131.619 80.0251C132.376 79.5891 133.264 79.3711 134.283 79.3711C135.842 79.3711 137.069 79.8552 137.967 80.8233C138.865 81.7851 139.314 83.0963 139.314 84.757V84.8724C139.314 86.4945 138.861 87.7833 137.957 88.7387C137.06 89.6876 135.842 90.1621 134.303 90.1621C132.822 90.1621 131.632 89.7197 130.735 88.8348C129.837 87.9436 129.353 86.7382 129.282 85.2186L129.273 84.6704ZM132.514 84.8724C132.514 85.8341 132.665 86.5394 132.966 86.9883C133.267 87.4371 133.713 87.6615 134.303 87.6615C135.457 87.6615 136.047 86.7735 136.072 84.9974V84.6704C136.072 82.8046 135.476 81.8717 134.283 81.8717C133.2 81.8717 132.613 82.6763 132.523 84.2857L132.514 84.8724ZM147.334 88.8445C146.648 89.7229 145.722 90.1621 144.555 90.1621C143.413 90.1621 142.548 89.8319 141.958 89.1715C141.375 88.5046 141.083 87.5493 141.083 86.3054V79.5634H144.324V86.3246C144.324 87.2159 144.757 87.6615 145.622 87.6615C146.366 87.6615 146.895 87.3954 147.209 86.8632V79.5634H150.47V89.9697H147.43L147.334 88.8445ZM158.942 82.4968L157.875 82.4199C156.855 82.4199 156.201 82.7405 155.913 83.3816V89.9697H152.672V79.5634H155.711L155.817 80.9003C156.362 79.8808 157.121 79.3711 158.096 79.3711C158.442 79.3711 158.744 79.4095 159 79.4865L158.942 82.4968ZM171.156 85.0262H169.329V89.9697H165.953V75.9664H171.464C173.124 75.9664 174.423 76.3351 175.359 77.0724C176.295 77.8098 176.763 78.8517 176.763 80.1982C176.763 81.1728 176.564 81.9807 176.167 82.6218C175.776 83.263 175.16 83.7824 174.32 84.1799L177.244 89.8255V89.9697H173.628L171.156 85.0262ZM169.329 82.4199H171.464C172.105 82.4199 172.586 82.2532 172.906 81.9197C173.233 81.5799 173.397 81.1087 173.397 80.5059C173.397 79.9032 173.233 79.432 172.906 79.0922C172.579 78.7459 172.099 78.5728 171.464 78.5728H169.329V82.4199ZM191.055 83.2566C191.055 84.6223 190.801 85.8309 190.295 86.8825C189.788 87.934 189.067 88.7451 188.131 89.3157C187.201 89.88 186.14 90.1621 184.947 90.1621C183.755 90.1621 182.697 89.8896 181.774 89.3446C180.85 88.7932 180.129 88.0077 179.61 86.9883C179.097 85.9688 178.827 84.7986 178.802 83.4778V82.6892C178.802 81.317 179.052 80.1084 179.552 79.0633C180.058 78.0118 180.78 77.2007 181.716 76.63C182.658 76.0594 183.729 75.7741 184.928 75.7741C186.114 75.7741 187.172 76.0562 188.102 76.6204C189.032 77.1846 189.753 77.9893 190.266 79.0344C190.785 80.0732 191.048 81.2657 191.055 82.6122V83.2566ZM187.621 82.6699C187.621 81.2786 187.387 80.2238 186.919 79.5057C186.457 78.7812 185.794 78.4189 184.928 78.4189C183.235 78.4189 182.341 79.6884 182.245 82.2275L182.235 83.2566C182.235 84.6287 182.463 85.6835 182.918 86.4208C183.373 87.1582 184.05 87.5268 184.947 87.5268C185.8 87.5268 186.457 87.1646 186.919 86.44C187.381 85.7155 187.615 84.6736 187.621 83.3143V82.6699ZM196.786 89.9697H193.42V75.9664H196.786V89.9697Z" fill="white"/>
<path d="M11.9629 27.3602V43.7095H20.1375C21.2579 43.7095 22.3117 43.5006 23.2992 43.0828C24.2866 42.6461 25.1506 42.0575 25.8911 41.3169C26.6317 40.5763 27.2108 39.7123 27.6286 38.7249C28.0653 37.7185 28.2837 36.6552 28.2837 35.5348C28.2837 34.4145 28.0653 33.3606 27.6286 32.3732C27.2108 31.3668 26.6317 30.4933 25.8911 29.7528C25.1506 29.0122 24.2866 28.4331 23.2992 28.0153C22.3117 27.5786 21.2579 27.3602 20.1375 27.3602H11.9629ZM11.9629 60.0303H3.78825V19.1855H20.1375C21.6376 19.1855 23.0808 19.3849 24.467 19.7837C25.8531 20.1635 27.1444 20.7141 28.3407 21.4357C29.5559 22.1383 30.6573 22.9928 31.6447 23.9992C32.6511 24.9866 33.5056 26.0879 34.2082 27.3032C34.9297 28.5185 35.4804 29.8192 35.8602 31.2054C36.259 32.5916 36.4583 34.0347 36.4583 35.5348C36.4583 36.94 36.2779 38.3072 35.9172 39.6364C35.5754 40.9656 35.0722 42.2284 34.4076 43.4246C33.7619 44.6209 32.9644 45.7223 32.015 46.7287C31.0655 47.7351 30.0022 48.6086 28.8249 49.3491L33.3537 60.0303H24.6663L21.106 51.7987L11.9629 51.8556V60.0303ZM51.6409 52.5677C51.9448 52.6627 52.2486 52.7291 52.5524 52.7671C52.8562 52.7861 53.16 52.7956 53.4639 52.7956C54.2234 52.7956 54.9545 52.6911 55.6571 52.4823C56.3596 52.2734 57.0148 51.9791 57.6224 51.5993C58.249 51.2005 58.7997 50.7258 59.2744 50.1751C59.7681 49.6055 60.1669 48.9788 60.4707 48.2952L66.1673 54.0203C65.4457 55.0457 64.6102 55.9667 63.6608 56.7832C62.7304 57.5997 61.7145 58.2928 60.6131 58.8625C59.5308 59.4321 58.3819 59.8594 57.1667 60.1442C55.9704 60.448 54.7361 60.5999 53.4639 60.5999C51.3181 60.5999 49.2958 60.2012 47.397 59.4036C45.5171 58.6061 43.8651 57.4953 42.4409 56.0711C41.0357 54.647 39.9249 52.957 39.1084 51.0011C38.2919 49.0263 37.8836 46.8616 37.8836 44.507C37.8836 42.0954 38.2919 39.8927 39.1084 37.8989C39.9249 35.9051 41.0357 34.2056 42.4409 32.8005C43.8651 31.3953 45.5171 30.3034 47.397 29.5249C49.2958 28.7464 51.3181 28.3571 53.4639 28.3571C54.7361 28.3571 55.9799 28.509 57.1951 28.8128C58.4104 29.1166 59.5592 29.5534 60.6416 30.123C61.7429 30.6927 62.7683 31.3953 63.7178 32.2308C64.6672 33.0473 65.5027 33.9683 66.2243 34.9937L51.6409 52.5677ZM55.6286 36.5317C55.2678 36.3988 54.907 36.3134 54.5462 36.2754C54.2044 36.2374 53.8436 36.2184 53.4639 36.2184C52.4005 36.2184 51.3941 36.4178 50.4447 36.8166C49.5142 37.1963 48.6977 37.747 47.9951 38.4686C47.3115 39.1902 46.7703 40.0636 46.3716 41.089C45.9728 42.0954 45.7734 43.2348 45.7734 44.507C45.7734 44.7918 45.7829 45.1146 45.8019 45.4754C45.8399 45.8362 45.8874 46.2065 45.9443 46.5863C46.0203 46.947 46.1057 47.2983 46.2007 47.6401C46.2956 47.9819 46.419 48.2858 46.571 48.5516L55.6286 36.5317ZM98.2974 60.0303H96.4175L93.3983 55.8433C92.6577 56.5079 91.8697 57.1345 91.0342 57.7231C90.2177 58.2928 89.3537 58.796 88.4422 59.2327C87.5308 59.6505 86.5908 59.9828 85.6224 60.2297C84.673 60.4765 83.7045 60.5999 82.7171 60.5999C80.5714 60.5999 78.5491 60.2391 76.6502 59.5176C74.7703 58.796 73.1183 57.7516 71.6942 56.3844C70.289 54.9983 69.1782 53.3083 68.3616 51.3145C67.5451 49.3206 67.1369 47.0515 67.1369 44.507C67.1369 42.1334 67.5451 39.9592 68.3616 37.9844C69.1782 35.9906 70.289 34.2816 71.6942 32.8574C73.1183 31.4333 74.7703 30.3319 76.6502 29.5534C78.5491 28.7559 80.5714 28.3571 82.7171 28.3571C83.7045 28.3571 84.6824 28.4805 85.6509 28.7274C86.6193 28.9742 87.5592 29.316 88.4707 29.7528C89.3822 30.1895 90.2461 30.7022 91.0627 31.2909C91.8982 31.8795 92.6767 32.5156 93.3983 33.1992L96.4175 29.5819H98.2974V60.0303ZM90.4645 44.507C90.4645 43.4436 90.2556 42.4182 89.8379 41.4308C89.4391 40.4244 88.8884 39.5415 88.1859 38.7819C87.4833 38.0034 86.6573 37.3862 85.7078 36.9305C84.7774 36.4558 83.7805 36.2184 82.7171 36.2184C81.6537 36.2184 80.6473 36.3988 79.6979 36.7596C78.7675 37.1204 77.9509 37.6521 77.2484 38.3547C76.5648 39.0572 76.0236 39.9307 75.6248 40.9751C75.2261 42.0005 75.0267 43.1778 75.0267 44.507C75.0267 45.8362 75.2261 47.023 75.6248 48.0674C76.0236 49.0928 76.5648 49.9568 77.2484 50.6593C77.9509 51.3619 78.7675 51.8936 79.6979 52.2544C80.6473 52.6152 81.6537 52.7956 82.7171 52.7956C83.7805 52.7956 84.7774 52.5677 85.7078 52.112C86.6573 51.6373 87.4833 51.0201 88.1859 50.2606C88.8884 49.482 89.4391 48.5991 89.8379 47.6117C90.2556 46.6053 90.4645 45.5704 90.4645 44.507ZM110.916 60.0303H103.084V17.3911H110.916V60.0303ZM123.051 71.6514V63.8185L127.381 63.8755C128.14 63.8755 128.871 63.7521 129.574 63.5052C130.277 63.2584 130.922 62.9166 131.511 62.4798C132.119 62.0431 132.65 61.5209 133.106 60.9132C133.562 60.3246 133.932 59.679 134.217 58.9764C133.362 59.3372 132.489 59.698 131.596 60.0588C130.723 60.4195 129.84 60.5999 128.947 60.5999C127.068 60.5999 125.302 60.2676 123.65 59.603C121.998 58.9384 120.545 57.9985 119.292 56.7832C118.057 55.5489 117.079 54.0583 116.358 52.3114C115.655 50.5454 115.304 48.5706 115.304 46.3869V29.5249H123.051V46.3869C123.051 47.4692 123.203 48.4187 123.507 49.2352C123.83 50.0327 124.257 50.7068 124.789 51.2575C125.321 51.7892 125.938 52.1879 126.64 52.4538C127.362 52.7196 128.131 52.8525 128.947 52.8525C129.745 52.8525 130.495 52.6721 131.198 52.3114C131.919 51.9316 132.546 51.4379 133.077 50.8302C133.609 50.2226 134.027 49.539 134.331 48.7795C134.635 48.0009 134.786 47.2034 134.786 46.3869V29.5249H142.619V56.1851C142.6 58.3308 142.183 60.3436 141.366 62.2235C140.55 64.1034 139.429 65.7459 138.005 67.151C136.6 68.5562 134.957 69.667 133.077 70.4836C131.198 71.3001 129.185 71.7083 127.039 71.7083L123.051 71.6514ZM171.217 60.0303H145.782L158.628 37.3293H145.782V29.5819H171.217L158.372 52.2829H171.217V60.0303ZM186.058 52.5677C186.362 52.6627 186.666 52.7291 186.97 52.7671C187.274 52.7861 187.577 52.7956 187.881 52.7956C188.641 52.7956 189.372 52.6911 190.074 52.4823C190.777 52.2734 191.432 51.9791 192.04 51.5993C192.666 51.2005 193.217 50.7258 193.692 50.1751C194.185 49.6055 194.584 48.9788 194.888 48.2952L200.585 54.0203C199.863 55.0457 199.028 55.9667 198.078 56.7832C197.148 57.5997 196.132 58.2928 195.03 58.8625C193.948 59.4321 192.799 59.8594 191.584 60.1442C190.388 60.448 189.153 60.5999 187.881 60.5999C185.735 60.5999 183.713 60.2012 181.814 59.4036C179.934 58.6061 178.282 57.4953 176.858 56.0711C175.453 54.647 174.342 52.957 173.526 51.0011C172.709 49.0263 172.301 46.8616 172.301 44.507C172.301 42.0954 172.709 39.8927 173.526 37.8989C174.342 35.9051 175.453 34.2056 176.858 32.8005C178.282 31.3953 179.934 30.3034 181.814 29.5249C183.713 28.7464 185.735 28.3571 187.881 28.3571C189.153 28.3571 190.397 28.509 191.612 28.8128C192.828 29.1166 193.977 29.5534 195.059 30.123C196.16 30.6927 197.186 31.3953 198.135 32.2308C199.085 33.0473 199.92 33.9683 200.642 34.9937L186.058 52.5677ZM190.046 36.5317C189.685 36.3988 189.324 36.3134 188.964 36.2754C188.622 36.2374 188.261 36.2184 187.881 36.2184C186.818 36.2184 185.811 36.4178 184.862 36.8166C183.932 37.1963 183.115 37.747 182.412 38.4686C181.729 39.1902 181.188 40.0636 180.789 41.089C180.39 42.0954 180.191 43.2348 180.191 44.507C180.191 44.7918 180.2 45.1146 180.219 45.4754C180.257 45.8362 180.305 46.2065 180.362 46.5863C180.438 46.947 180.523 47.2983 180.618 47.6401C180.713 47.9819 180.836 48.2858 180.988 48.5516L190.046 36.5317ZM211.181 60.0303H203.406V29.5249H205.285L207.849 33.1423C209.102 32.0029 210.526 31.1294 212.121 30.5218C213.716 29.8952 215.368 29.5819 217.077 29.5819H223.942V37.3293H217.077C216.261 37.3293 215.492 37.4812 214.77 37.785C214.049 38.0888 213.422 38.5066 212.89 39.0382C212.359 39.5699 211.941 40.1966 211.637 40.9181C211.333 41.6397 211.181 42.4087 211.181 43.2253V60.0303Z" fill="white"/>
<path d="M67.8031 0L96.3425 21.0227H39.2636L67.8031 0Z" fill="white"/>
<rect x="44.697" y="18.9392" width="46.2121" height="6.06061" fill="white"/>
</svg>
