<svg width="32" height="32" viewBox="0 0 32 32" fill="none" xmlns="http://www.w3.org/2000/svg">
<path d="M27.9415 17.1924C27.7157 19.4529 26.8529 21.6028 25.4534 23.3923C24.0539 25.1818 22.1753 26.5373 20.0358 27.3012C17.8964 28.0651 15.584 28.206 13.3676 27.7076C11.1512 27.2092 9.12185 26.0919 7.51539 24.4857C5.90893 22.8794 4.79139 20.8502 4.29271 18.6338C3.79402 16.4175 3.93468 14.1052 4.69831 11.9656C5.46195 9.82607 6.81721 7.94723 8.60651 6.54752C10.3958 5.14782 12.5457 4.28475 14.8061 4.05865L14.8061 4.05875C14.0195 5.89632 13.8013 7.92742 14.1797 9.89015C14.5582 11.8529 15.5159 13.6572 16.9294 15.0706C18.3429 16.4839 20.1474 17.4414 22.1102 17.8196C24.073 18.1978 26.1041 17.9793 27.9415 17.1924L27.9415 17.1924Z" stroke="white" stroke-width="2" stroke-linecap="round" stroke-linejoin="round"/>
</svg>
